<?xml version="1.0" encoding="UTF-8"?>
<svg xmlns="http://www.w3.org/2000/svg" xmlns:xlink="http://www.w3.org/1999/xlink" viewBox="0 0 48 48" version="1.1" width="48px" height="48px">
<g id="surface1">
<path style=" fill:#FFB74D;" d="M 24.449219 22.976563 C 24.292969 22.796875 24.132813 22.621094 24 22.429688 C 23.867188 22.621094 23.707031 22.800781 23.550781 22.976563 C 23.699219 22.988281 23.847656 23 24 23 C 24.152344 23 24.300781 22.988281 24.449219 22.976563 Z "/>
<path style=" fill:#FFB74D;" d="M 23.292969 14.808594 C 23.5625 15.078125 23.792969 15.371094 24 15.675781 C 24.207031 15.371094 24.4375 15.078125 24.707031 14.808594 L 29.65625 9.859375 C 29.757813 9.757813 29.875 9.6875 29.976563 9.59375 C 29.769531 6.472656 27.175781 4 24 4 C 20.824219 4 18.230469 6.472656 18.019531 9.59375 C 18.125 9.6875 18.242188 9.757813 18.34375 9.859375 Z "/>
<path style=" fill:#64B5F6;" d="M 23.550781 25.019531 C 23.707031 25.203125 23.867188 25.378906 24 25.570313 C 24.132813 25.378906 24.292969 25.203125 24.449219 25.019531 C 24.300781 25.011719 24.152344 25 24 25 C 23.847656 25 23.699219 25.011719 23.550781 25.019531 Z "/>
<path style=" fill:#64B5F6;" d="M 24.707031 33.191406 C 24.4375 32.921875 24.207031 32.628906 24 32.324219 C 23.792969 32.632813 23.5625 32.921875 23.292969 33.191406 L 18.34375 38.140625 C 18.242188 38.242188 18.125 38.3125 18.019531 38.40625 C 18.230469 41.527344 20.824219 44 24 44 C 27.175781 44 29.769531 41.527344 29.980469 38.40625 C 29.875 38.3125 29.757813 38.242188 29.65625 38.140625 Z "/>
<path style=" fill:#F48FB1;" d="M 14.808594 24.707031 C 15.078125 24.4375 15.371094 24.207031 15.675781 24 C 15.371094 23.792969 15.078125 23.5625 14.808594 23.292969 L 9.859375 18.34375 C 9.757813 18.242188 9.6875 18.125 9.59375 18.019531 C 6.472656 18.230469 4 20.824219 4 24 C 4 27.175781 6.472656 29.769531 9.59375 29.980469 C 9.6875 29.875 9.757813 29.757813 9.859375 29.65625 Z "/>
<path style=" fill:#F48FB1;" d="M 22.976563 23.550781 C 22.796875 23.707031 22.621094 23.867188 22.429688 24 C 22.621094 24.132813 22.800781 24.292969 22.976563 24.449219 C 22.988281 24.300781 23 24.152344 23 24 C 23 23.847656 22.988281 23.699219 22.976563 23.550781 Z "/>
<path style=" fill:#8BC34A;" d="M 25 24 C 25 24.152344 25.011719 24.300781 25.019531 24.449219 C 25.203125 24.292969 25.378906 24.132813 25.570313 24 C 25.378906 23.867188 25.203125 23.707031 25.019531 23.550781 C 25.011719 23.699219 25 23.847656 25 24 Z "/>
<path style=" fill:#8BC34A;" d="M 44 24 C 44 20.824219 41.527344 18.230469 38.40625 18.019531 C 38.3125 18.125 38.242188 18.242188 38.140625 18.34375 L 33.191406 23.292969 C 32.921875 23.5625 32.628906 23.792969 32.324219 24 C 32.632813 24.210938 32.921875 24.4375 33.191406 24.707031 L 38.140625 29.65625 C 38.242188 29.757813 38.3125 29.875 38.40625 29.980469 C 41.527344 29.769531 44 27.175781 44 24 Z "/>
<path style=" fill:#C0CA33;" d="M 30 17 C 30 17.378906 29.960938 17.746094 29.894531 18.105469 C 30.253906 18.039063 30.621094 18 31 18 L 38 18 C 38.136719 18 38.269531 18.011719 38.40625 18.019531 C 40.457031 15.664063 40.386719 12.101563 38.140625 9.859375 C 35.898438 7.617188 32.335938 7.542969 29.976563 9.59375 C 29.988281 9.730469 30 9.863281 30 10 Z "/>
<path style=" fill:#C0CA33;" d="M 25.019531 23.550781 C 25.039063 23.328125 25.066406 23.109375 25.105469 22.894531 C 24.890625 22.933594 24.671875 22.960938 24.449219 22.976563 C 24.539063 23.082031 24.609375 23.195313 24.707031 23.292969 C 24.804688 23.390625 24.917969 23.460938 25.019531 23.550781 Z "/>
<path style=" fill:#F9A825;" d="M 24.707031 14.808594 C 24.4375 15.078125 24.207031 15.371094 24 15.675781 C 25.390625 17.707031 25.390625 20.394531 24 22.429688 C 24.132813 22.621094 24.292969 22.800781 24.449219 22.976563 C 24.671875 22.960938 24.890625 22.933594 25.105469 22.894531 C 25.558594 20.46875 27.46875 18.558594 29.890625 18.105469 C 29.960938 17.746094 30 17.378906 30 17 L 30 10 C 30 9.863281 29.988281 9.730469 29.980469 9.59375 C 29.875 9.6875 29.757813 9.757813 29.65625 9.859375 Z "/>
<path style=" fill:#689F38;" d="M 31 18 C 30.621094 18 30.253906 18.039063 29.894531 18.105469 C 29.441406 20.53125 27.53125 22.441406 25.109375 22.894531 C 25.066406 23.109375 25.039063 23.328125 25.023438 23.550781 C 25.203125 23.707031 25.378906 23.867188 25.574219 24 C 27.605469 22.609375 30.296875 22.609375 32.328125 24 C 32.632813 23.789063 32.925781 23.5625 33.195313 23.292969 L 38.144531 18.34375 C 38.242188 18.242188 38.316406 18.125 38.40625 18.019531 C 38.269531 18.011719 38.136719 18 38 18 Z "/>
<path style=" fill:#827717;" d="M 29.894531 18.105469 C 27.46875 18.558594 25.558594 20.46875 25.109375 22.894531 C 27.53125 22.441406 29.441406 20.53125 29.894531 18.105469 Z "/>
<path style=" fill:#BA68C8;" d="M 18 31 C 18 30.621094 18.039063 30.253906 18.105469 29.894531 C 17.746094 29.960938 17.378906 30 17 30 L 10 30 C 9.863281 30 9.730469 29.988281 9.59375 29.980469 C 7.542969 32.335938 7.613281 35.902344 9.859375 38.144531 C 12.101563 40.382813 15.664063 40.457031 18.019531 38.40625 C 18.011719 38.269531 18 38.136719 18 38 Z "/>
<path style=" fill:#BA68C8;" d="M 22.976563 24.449219 C 22.960938 24.671875 22.933594 24.890625 22.894531 25.105469 C 23.109375 25.066406 23.328125 25.039063 23.550781 25.019531 C 23.460938 24.917969 23.390625 24.804688 23.292969 24.707031 C 23.195313 24.609375 23.082031 24.539063 22.976563 24.449219 Z "/>
<path style=" fill:#5C6BC0;" d="M 23.292969 33.191406 C 23.5625 32.921875 23.792969 32.628906 24 32.324219 C 22.609375 30.296875 22.609375 27.605469 24 25.570313 C 23.867188 25.378906 23.707031 25.203125 23.550781 25.019531 C 23.328125 25.039063 23.109375 25.066406 22.894531 25.105469 C 22.441406 27.53125 20.53125 29.441406 18.105469 29.890625 C 18.039063 30.253906 18 30.621094 18 31 L 18 38 C 18 38.136719 18.011719 38.269531 18.019531 38.40625 C 18.125 38.3125 18.242188 38.242188 18.34375 38.140625 Z "/>
<path style=" fill:#D81B60;" d="M 17 30 C 17.378906 30 17.746094 29.960938 18.105469 29.894531 C 18.558594 27.46875 20.46875 25.558594 22.894531 25.109375 C 22.933594 24.894531 22.960938 24.671875 22.976563 24.449219 C 22.796875 24.292969 22.621094 24.132813 22.425781 24.003906 C 20.394531 25.390625 17.707031 25.390625 15.671875 24.003906 C 15.367188 24.210938 15.078125 24.441406 14.808594 24.710938 L 9.855469 29.65625 C 9.757813 29.761719 9.683594 29.875 9.59375 29.980469 C 9.730469 29.988281 9.863281 30 10 30 Z "/>
<path style=" fill:#880E4F;" d="M 18.105469 29.894531 C 20.53125 29.441406 22.441406 27.53125 22.894531 25.109375 C 20.46875 25.558594 18.558594 27.46875 18.105469 29.894531 Z "/>
<path style=" fill:#FF5252;" d="M 23.550781 22.976563 C 23.328125 22.960938 23.109375 22.933594 22.894531 22.894531 C 22.933594 23.109375 22.960938 23.328125 22.976563 23.550781 C 23.082031 23.460938 23.195313 23.390625 23.292969 23.292969 C 23.390625 23.195313 23.460938 23.082031 23.550781 22.976563 Z "/>
<path style=" fill:#FF5252;" d="M 17 18 C 17.378906 18 17.746094 18.039063 18.105469 18.105469 C 18.039063 17.746094 18 17.378906 18 17 L 18 10 C 18 9.863281 18.011719 9.730469 18.019531 9.59375 C 15.664063 7.542969 12.101563 7.613281 9.859375 9.859375 C 7.613281 12.101563 7.542969 15.664063 9.59375 18.019531 C 9.730469 18.011719 9.863281 18 10 18 Z "/>
<path style=" fill:#EF6C00;" d="M 18 17 C 18 17.378906 18.039063 17.746094 18.105469 18.105469 C 20.53125 18.558594 22.441406 20.46875 22.894531 22.894531 C 23.109375 22.933594 23.328125 22.960938 23.550781 22.976563 C 23.707031 22.796875 23.867188 22.621094 24 22.425781 C 22.609375 20.394531 22.609375 17.707031 24 15.671875 C 23.789063 15.371094 23.5625 15.078125 23.292969 14.808594 L 18.34375 9.855469 C 18.242188 9.757813 18.125 9.683594 18.019531 9.59375 C 18.011719 9.730469 18 9.863281 18 10 Z "/>
<path style=" fill:#F44336;" d="M 14.808594 23.292969 C 15.078125 23.5625 15.371094 23.792969 15.675781 24 C 17.707031 22.609375 20.394531 22.609375 22.429688 24 C 22.621094 23.867188 22.800781 23.707031 22.976563 23.550781 C 22.960938 23.328125 22.933594 23.109375 22.894531 22.894531 C 20.46875 22.441406 18.558594 20.53125 18.105469 18.105469 C 17.746094 18.039063 17.378906 18 17 18 L 10 18 C 9.863281 18 9.730469 18.011719 9.59375 18.019531 C 9.6875 18.125 9.757813 18.242188 9.859375 18.34375 Z "/>
<path style=" fill:#DD2C00;" d="M 18.105469 18.105469 C 18.558594 20.53125 20.46875 22.441406 22.894531 22.894531 C 22.441406 20.46875 20.53125 18.558594 18.105469 18.105469 Z "/>
<path style=" fill:#E65100;" d="M 24 15.671875 C 22.609375 17.707031 22.609375 20.394531 24 22.425781 C 25.390625 20.394531 25.390625 17.707031 24 15.671875 Z "/>
<path style=" fill:#B71C1C;" d="M 15.671875 24 C 17.707031 25.390625 20.394531 25.390625 22.425781 24 C 20.394531 22.609375 17.707031 22.609375 15.671875 24 Z "/>
<path style=" fill:#00ACC1;" d="M 31 30 C 30.621094 30 30.253906 29.960938 29.894531 29.894531 C 29.960938 30.253906 30 30.621094 30 31 L 30 38 C 30 38.136719 29.988281 38.269531 29.980469 38.40625 C 32.335938 40.457031 35.902344 40.386719 38.144531 38.140625 C 40.382813 35.898438 40.457031 32.335938 38.40625 29.976563 C 38.269531 29.988281 38.136719 30 38 30 Z "/>
<path style=" fill:#00ACC1;" d="M 24.449219 25.019531 C 24.671875 25.039063 24.890625 25.066406 25.105469 25.105469 C 25.066406 24.890625 25.039063 24.671875 25.019531 24.449219 C 24.917969 24.539063 24.804688 24.609375 24.707031 24.707031 C 24.609375 24.804688 24.539063 24.917969 24.449219 25.019531 Z "/>
<path style=" fill:#0277BD;" d="M 30 31 C 30 30.621094 29.960938 30.253906 29.894531 29.894531 C 27.46875 29.441406 25.558594 27.53125 25.109375 25.109375 C 24.894531 25.066406 24.671875 25.039063 24.449219 25.023438 C 24.292969 25.203125 24.132813 25.378906 24.003906 25.574219 C 25.390625 27.605469 25.390625 30.296875 24.003906 32.328125 C 24.210938 32.632813 24.441406 32.925781 24.710938 33.195313 L 29.65625 38.144531 C 29.761719 38.242188 29.875 38.316406 29.980469 38.40625 C 29.988281 38.269531 30 38.136719 30 38 Z "/>
<path style=" fill:#00796B;" d="M 33.191406 24.707031 C 32.921875 24.4375 32.628906 24.207031 32.324219 24 C 30.292969 25.390625 27.605469 25.390625 25.570313 24 C 25.378906 24.132813 25.203125 24.292969 25.019531 24.449219 C 25.039063 24.671875 25.066406 24.890625 25.105469 25.105469 C 27.53125 25.558594 29.441406 27.46875 29.890625 29.890625 C 30.253906 29.960938 30.621094 30 31 30 L 38 30 C 38.136719 30 38.269531 29.988281 38.40625 29.980469 C 38.3125 29.875 38.242188 29.757813 38.140625 29.65625 Z "/>
<path style=" fill:#006064;" d="M 29.894531 29.894531 C 29.441406 27.46875 27.53125 25.558594 25.109375 25.109375 C 25.558594 27.53125 27.46875 29.441406 29.894531 29.894531 Z "/>
<path style=" fill:#1B5E20;" d="M 25.570313 24 C 27.605469 25.390625 30.292969 25.390625 32.324219 24 C 30.296875 22.609375 27.605469 22.609375 25.570313 24 Z "/>
<path style=" fill:#0D47A1;" d="M 24 32.324219 C 25.390625 30.296875 25.390625 27.605469 24 25.570313 C 22.609375 27.605469 22.609375 30.296875 24 32.324219 Z "/>
</g>
</svg>
