<svg height="512pt" viewBox="-81 0 512 512.00015" width="512pt" xmlns="http://www.w3.org/2000/svg"><path d="m294.996094 10.003906c-10.835938 0 2.25-1.679687-284.996094 75v416.996094h329.996094v-446.996094c0-24.851562-20.148438-45-45-45zm0 0" fill="#f2f2f2"/><path d="m299.996094 339v40c-10.394532 0-238.324219 0-249.996094 0v-40zm0 0" fill="#c8ec4b"/><path d="m240 296h-120c0-33.136719 26.859375-59.996094 60-59.996094 33.136719 0 60 26.859375 60 59.996094zm0 0" fill="#ff6c6c"/><path d="m220 419v40h-170v-40zm0 0" fill="#ff6c6c"/><path d="m220 176.003906c0 22.089844-17.910156 40-40 40-22.09375 0-40-17.910156-40-40 0-22.09375 17.90625-40 40-40 22.089844 0 40 17.90625 40 40zm0 0" fill="#ffcebf"/><path d="m50 379h90v40h-90zm0 0" fill="#ffda2d"/><path d="m230 176.003906c0-27.570312-22.429688-50-50-50s-50 22.429688-50 50c0 27.570313 22.429688 50 50 50s50-22.429687 50-50zm-50 30c-16.542969 0-30-13.460937-30-30 0-16.542968 13.457031-30 30-30 16.539062 0 30 13.457032 30 30 0 16.539063-13.460938 30-30 30zm0 0"/><path d="m110 296c0 5.523438 4.476562 10 10 10h120c5.519531 0 10-4.476562 10-10 0-38.597656-31.402344-69.996094-70-69.996094s-70 31.398438-70 69.996094zm70-49.996094c24.144531 0 44.347656 17.203125 48.992188 39.996094h-97.988282c4.644532-22.792969 24.851563-39.996094 48.996094-39.996094zm0 0"/><path d="m230 459v-40c0-5.523438-4.480469-10-10-10h-70v-20h149.996094c5.523437 0 10-4.476562 10-10v-40c0-5.519531-4.476563-10-10-10h-249.996094c-5.523438 0-10 4.480469-10 10v120c0 5.523438 4.476562 10 10 10h170c5.519531 0 10-4.476562 10-10zm-100-50h-70v-20h70zm-70-60h229.996094v20h-229.996094zm150 100h-150v-20h150zm0 0"/><path d="m190 502c0 5.523438-4.480469 10-10 10-5.523438 0-10-4.476562-10-10s4.476562-10 10-10c5.519531 0 10 4.476562 10 10zm0 0"/><path d="m10 512h125c5.519531 0 10-4.476562 10-10s-4.480469-10-10-10h-115v-396.996094h241.457031c3.945313 0 7.523438-2.320312 9.132813-5.921875 1.605468-3.601562.949218-7.8125-1.683594-10.75-5.746094-6.414062-8.910156-14.699219-8.910156-23.328125 0-19.203125 15.550781-35 35-35 19.300781 0 35 15.699219 35 35v436.996094h-104.996094c-5.523438 0-10 4.476562-10 10s4.476562 10 10 10h114.996094c5.523437 0 10-4.476562 10-10v-446.996094c0-30.328125-24.671875-54.99999975-55-54.99999975-13.816406 0 2.285156-1.89453125-287.59375 75.34374975-4.464844 1.207032-7.402344 5.308594-7.402344 9.65625v416.996094c0 5.523438 4.476562 10 10 10zm233.753906-436.996094h-158.027344l159.242188-42.804687c-3.199219 7.003906-4.96875 14.746093-4.96875 22.804687 0 6.910156 1.292969 13.683594 3.753906 20zm0 0"/></svg>