<?xml version="1.0" encoding="utf-8"?>
<!-- Generator: Adobe Illustrator 21.0.0, SVG Export Plug-In . SVG Version: 6.00 Build 0)  -->
<svg xmlns="http://www.w3.org/2000/svg" xmlns:xlink="http://www.w3.org/1999/xlink" version="1.1" x="0px" y="0px" viewBox="0 0 100 100" style="enable-background:new 0 0 100 100;" xml:space="preserve" width="400px" height="400px">

<g id="wind_sock">
</g>
<g id="umbrella">
</g>
<g id="temperature">
</g>
<g id="snow_rain_night">
</g>
<g id="snow_rain_day">
</g>
<g id="windy_day">
</g>
<g id="windy_night">
</g>
<g id="storm_night">
</g>
<g id="clear_night">
</g>
<g id="snow_night">
</g>
<g id="snow_day">
</g>
<g id="snow_rain">
</g>
<g id="foggy_night">
</g>
<g id="cloudy_night">
</g>
<g id="rain">
</g>
<g id="storm">
</g>
<g id="fog">
</g>
<g id="wind">
</g>
<g id="cloudy">
</g>
<g id="sun">
</g>
<g id="explorer">
</g>
<g id="visio">
</g>
<g id="access">
</g>
<g id="note">
</g>
<g id="outlook">
</g>
<g id="pdf">
</g>
<g id="power_point">
</g>
<g id="exel">
</g>
<g id="word">
</g>
<g id="office">
</g>
<g id="bridge">
</g>
<g id="muse">
</g>
<g id="flash">
</g>
<g id="premiere">
</g>
<g id="after_effects">
</g>
<g id="dreamwever">
</g>
<g id="indesign">
</g>
<g id="lightroom">
</g>
<g id="illustrator">
</g>
<g id="photoshop">
</g>
<g id="presentation">
</g>
<g id="microphone">
</g>
<g id="globe">
</g>
<g id="password">
</g>
<g id="break_link">
</g>
<g id="link">
</g>
<g id="tap">
</g>
<g id="down">
</g>
<g id="top">
</g>
<g id="direction">
</g>
<g id="move">
</g>
<g id="click">
</g>
<g id="point">
</g>
<g id="like">
</g>
<g id="support">
</g>
<g id="wifi">
</g>
<g id="music">
</g>
<g id="more">
</g>
<g id="visible">
</g>
<g id="error">
</g>
<g id="list">
</g>
<g id="grid">
</g>
<g id="favorite">
</g>
<g id="exit">
</g>
<g id="power">
</g>
<g id="delete">
</g>
<g id="msg">
</g>
<g id="info">
</g>
<g id="help">
</g>
<g id="warning">
</g>
<g id="cassete">
</g>
<g id="piano">
</g>
<g id="speaker">
</g>
<g id="attention">
</g>
<g id="crown">
</g>
<g id="prize">
</g>
<g id="medal">
</g>
<g id="alarm">
</g>
<g id="stopper">
</g>
<g id="flag">
</g>
<g id="snapchat">
	<g>
		<g>
			<g>
				<g>
					<g>
						<g>
							<path d="M69.882,81.654h-39c-6.6,0-12-5.4-12-12v-39c0-6.6,5.4-12,12-12h39c6.6,0,12,5.4,12,12v39         C81.882,76.254,76.482,81.654,69.882,81.654z" style="fill:#F8E55B;"/>
							<path d="M69.882,82.654h-39c-7.168,0-13-5.832-13-13v-39c0-7.168,5.832-13,13-13h39c7.168,0,13,5.832,13,13v39         C82.882,76.822,77.05,82.654,69.882,82.654z M30.882,19.654c-6.065,0-11,4.935-11,11v39c0,6.065,4.935,11,11,11h39         c6.065,0,11-4.935,11-11v-39c0-6.065-4.935-11-11-11H30.882z" style="fill:#1F212B;"/>
						</g>
						<g>
							<path d="M77.382,48.154v18.663c0,5.685-4.652,10.337-10.337,10.337H33.719c-5.685,0-10.337-4.652-10.337-10.337         V33.491c0-5.685,4.652-10.337,10.337-10.337h33.663" style="fill:#F8E55B;"/>
							<path d="M67.045,77.654H33.719c-5.976,0-10.837-4.861-10.837-10.837V33.49c0-5.976,4.861-10.837,10.837-10.837         h33.663c0.276,0,0.5,0.224,0.5,0.5s-0.224,0.5-0.5,0.5H33.719c-5.424,0-9.837,4.413-9.837,9.837v33.326         c0,5.424,4.413,9.837,9.837,9.837h33.326c5.424,0,9.837-4.413,9.837-9.837V48.154c0-0.276,0.224-0.5,0.5-0.5         s0.5,0.224,0.5,0.5v18.663C77.882,72.792,73.021,77.654,67.045,77.654z" style="fill:#1F212B;"/>
						</g>
						<g>
							<path d="M77.382,46.654c-0.276,0-0.5-0.224-0.5-0.5v-4c0-0.276,0.224-0.5,0.5-0.5s0.5,0.224,0.5,0.5v4         C77.882,46.43,77.658,46.654,77.382,46.654z" style="fill:#1F212B;"/>
						</g>
						<g>
							<path d="M77.382,40.654c-0.276,0-0.5-0.224-0.5-0.5v-2c0-0.276,0.224-0.5,0.5-0.5s0.5,0.224,0.5,0.5v2         C77.882,40.43,77.658,40.654,77.382,40.654z" style="fill:#1F212B;"/>
						</g>
					</g>
				</g>
			</g>
		</g>
		<g>
			<path d="M50.592,66.229c-0.089,0-0.177-0.003-0.265-0.007h0c-0.056,0.004-0.114,0.007-0.173,0.007     c-2.052,0-3.37-0.947-4.644-1.864c-0.88-0.632-1.71-1.229-2.688-1.395c-0.477-0.08-0.952-0.121-1.411-0.121     c-0.827,0-1.479,0.13-1.956,0.225c-0.289,0.058-0.539,0.107-0.729,0.107c-0.198,0-0.413-0.044-0.506-0.368     c-0.081-0.281-0.14-0.553-0.196-0.817c-0.145-0.678-0.249-1.095-0.528-1.139c-3.255-0.512-4.187-1.209-4.395-1.704     c-0.029-0.071-0.046-0.142-0.05-0.212c-0.011-0.19,0.122-0.358,0.307-0.389c5.004-0.838,7.248-6.041,7.341-6.262     c0.003-0.006,0.005-0.012,0.008-0.018c0.306-0.631,0.366-1.18,0.179-1.629c-0.343-0.823-1.463-1.185-2.205-1.424     c-0.181-0.058-0.353-0.114-0.489-0.168c-1.479-0.595-1.603-1.206-1.544-1.517c0.099-0.53,0.796-0.9,1.359-0.9     c0.155,0,0.291,0.028,0.405,0.082c0.666,0.317,1.265,0.478,1.783,0.478c0.715,0,1.027-0.306,1.065-0.346     c-0.018-0.345-0.041-0.704-0.064-1.076c-0.149-2.407-0.334-5.397,0.415-7.105c2.243-5.117,7-5.515,8.405-5.515     c0.036,0,0.21,0,0.21,0h0.594c9.5-0.001,8.521,10.113,8.384,13.201l-0.006,0.101c-0.02,0.324-0.039,0.638-0.055,0.939     c0.035,0.036,0.312,0.308,0.939,0.332h0.001c0.476-0.019,1.023-0.173,1.624-0.459c0.176-0.084,0.371-0.101,0.505-0.101     c0.203,0,0.409,0.04,0.58,0.113l0.01,0.004c0.486,0.175,0.804,0.522,0.811,0.883c0.006,0.341-0.249,0.853-1.504,1.357     c-0.13,0.052-0.296,0.106-0.472,0.162c-0.717,0.232-1.799,0.581-2.131,1.376c-0.181,0.434-0.123,0.963,0.173,1.574     c0.003,0.006,0.006,0.012,0.008,0.018c0.09,0.213,2.257,5.241,7.095,6.052c0.179,0.03,0.306,0.192,0.296,0.376     c-0.004,0.069-0.021,0.138-0.049,0.206c-0.2,0.475-1.099,1.148-4.246,1.643c-0.257,0.04-0.357,0.381-0.51,1.096     c-0.056,0.26-0.112,0.516-0.19,0.784c-0.067,0.233-0.21,0.342-0.45,0.342h0.389c-0.173,0-0.418-0.031-0.729-0.093     c-0.551-0.11-1.169-0.211-1.956-0.211c-0.459,0-0.934,0.041-1.412,0.121c-0.977,0.166-1.806,0.761-2.684,1.393     C53.962,65.282,52.645,66.229,50.592,66.229z" style="fill:#FDFCEE;"/>
			<path d="M50.592,66.729c-0.097,0-0.191-0.003-0.287-0.007c-0.008,0.004-0.08,0.007-0.15,0.007     c-2.214,0-3.659-1.04-4.936-1.958c-0.831-0.598-1.616-1.162-2.48-1.308c-1.264-0.212-2.478-0.04-3.185,0.101     c-0.315,0.062-0.587,0.117-0.827,0.117c-0.677,0-0.908-0.458-0.986-0.731c-0.085-0.292-0.146-0.576-0.205-0.851     c-0.047-0.22-0.131-0.611-0.204-0.762c-2.782-0.446-4.317-1.098-4.69-1.991c-0.051-0.121-0.08-0.245-0.089-0.37     c-0.023-0.454,0.288-0.844,0.724-0.917c4.715-0.79,6.874-5.753,6.964-5.964c0.259-0.538,0.315-0.947,0.186-1.259     c-0.256-0.612-1.244-0.931-1.897-1.141c-0.196-0.063-0.378-0.122-0.521-0.18c-1.718-0.69-1.954-1.508-1.85-2.072     c0.196-1.049,1.674-1.557,2.47-1.179c0.599,0.285,1.126,0.43,1.568,0.43c0.261,0,0.438-0.05,0.551-0.099     c-0.015-0.257-0.031-0.521-0.048-0.791c-0.152-2.458-0.343-5.517,0.456-7.337c2.365-5.395,7.381-5.814,8.862-5.814h0.804h0.001     c2.712,0,4.849,0.802,6.352,2.384c2.953,3.109,2.684,8.353,2.554,10.872l-0.068,1.229c0.097,0.041,0.241,0.081,0.442,0.088     c0.37-0.016,0.851-0.154,1.391-0.411c0.643-0.305,1.106-0.163,1.496,0.003c0.666,0.239,1.114,0.767,1.125,1.338     c0.013,0.725-0.6,1.341-1.818,1.831c-0.137,0.055-0.309,0.111-0.491,0.17c-0.643,0.208-1.594,0.514-1.836,1.097     c-0.124,0.296-0.07,0.688,0.161,1.164c0.104,0.246,2.167,5.029,6.735,5.794c0.43,0.073,0.736,0.458,0.713,0.896     c-0.007,0.13-0.037,0.257-0.09,0.378c-0.361,0.86-1.846,1.492-4.536,1.923c-0.069,0.155-0.152,0.543-0.19,0.721     c-0.059,0.271-0.118,0.537-0.198,0.817c-0.09,0.31-0.279,0.528-0.541,0.633v0.071l-0.39-0.029     c-0.13-0.017-0.275-0.042-0.438-0.074c-0.524-0.104-1.112-0.201-1.857-0.201c-0.431,0-0.878,0.039-1.329,0.114     c-0.863,0.146-1.646,0.709-2.476,1.306C54.253,65.688,52.806,66.729,50.592,66.729z M50.288,65.724     c0.142,0.002,0.223,0.005,0.304,0.005c1.892,0,3.087-0.86,4.354-1.771c0.927-0.667,1.801-1.295,2.894-1.481     c0.508-0.085,1.011-0.128,1.496-0.128c0.832,0,1.479,0.106,2.053,0.221c0.095,0.019,0.177,0.033,0.249,0.045     c0.043-0.226,0.094-0.458,0.144-0.693c0.153-0.713,0.298-1.388,0.923-1.485c2.943-0.462,3.651-1.043,3.818-1.269     c-4.981-0.944-7.204-6.098-7.298-6.319c-0.358-0.74-0.42-1.407-0.181-1.979c0.419-1.008,1.634-1.4,2.438-1.659     c0.171-0.056,0.321-0.104,0.439-0.151c0.945-0.38,1.193-0.735,1.19-0.884c-0.002-0.121-0.172-0.311-0.48-0.421     c-0.267-0.112-0.557-0.109-0.711-0.035c-0.662,0.315-1.274,0.486-1.819,0.507c-0.812-0.03-1.211-0.375-1.315-0.48l-0.155-0.158     l0.097-1.729c0.123-2.38,0.378-7.334-2.28-10.132c-1.307-1.375-3.199-2.073-5.626-2.073h-0.001h-0.804     c-1.328,0-5.825,0.376-7.946,5.215c-0.701,1.599-0.52,4.523-0.374,6.873c0.023,0.373,0.046,0.734,0.063,1.081l0.012,0.214     l-0.148,0.156c-0.112,0.117-0.545,0.501-1.428,0.501c-0.593,0-1.266-0.177-1.998-0.527c-0.031-0.015-0.091-0.033-0.189-0.033     c-0.377,0-0.823,0.253-0.868,0.492c-0.027,0.148,0.196,0.542,1.24,0.961c0.125,0.05,0.283,0.101,0.45,0.154     c0.833,0.269,2.085,0.672,2.519,1.71c0.245,0.588,0.181,1.274-0.19,2.039c-0.095,0.225-2.417,5.561-7.551,6.526     c0.193,0.271,0.946,0.873,3.968,1.347c0.632,0.099,0.781,0.792,0.939,1.527c0.053,0.254,0.11,0.515,0.188,0.783     c0.174,0.003,0.406-0.041,0.657-0.09c0.496-0.099,1.176-0.234,2.053-0.234c0.486,0,0.988,0.043,1.494,0.128     c1.093,0.186,1.969,0.815,2.896,1.481c1.267,0.911,2.461,1.771,4.353,1.771C50.199,65.729,50.244,65.727,50.288,65.724z      M62.858,61.425L62.858,61.425L62.858,61.425z" style="fill:#1F212B;"/>
		</g>
	</g>
</g>
<g id="dribbble">
</g>
<g id="flickr">
</g>
<g id="youtube">
</g>
<g id="skype">
</g>
<g id="twitter">
</g>
<g id="instagram">
</g>
<g id="linkedin">
</g>
<g id="vimeo">
</g>
<g id="tumbler">
</g>
<g id="google">
</g>
<g id="whatsapp">
</g>
<g id="facebook">
</g>
<g id="curve">
</g>
<g id="paint_bucket">
</g>
<g id="roller">
</g>
<g id="switch">
</g>
<g id="scissors">
</g>
<g id="picker">
</g>
<g id="brush">
</g>
</svg>
